HIERARCHY
ROOT Hips
{
  OFFSET 0 0 0
  CHANNELS 6 Xposition Yposition Zposition Zrotation Xrotation Yrotation
  JOINT Spine
  {
    OFFSET 0 10 0
    CHANNELS 3 Zrotation Xrotation Yrotation
    JOINT Neck
    {
      OFFSET 0 30 0
      CHANNELS 3 Zrotation Xrotation Yrotation
      JOINT Head
      {
        OFFSET 0 8 0
        CHANNELS 3 Zrotation Xrotation Yrotation
        End Site
        {
          OFFSET 0 10 0
        }
      }
    }
    JOINT LeftArm
    {
      OFFSET 15 30 0
      CHANNELS 3 Zrotation Xrotation Yrotation
      JOINT LeftForeArm
      {
        OFFSET 25 0 0
        CHANNELS 3 Zrotation Xrotation Yrotation
        JOINT LeftHand
        {
          OFFSET 25 0 0
          CHANNELS 3 Zrotation Xrotation Yrotation
          End Site
          {
            OFFSET 10 0 0
          }
        }
      }
    }
    JOINT RightArm
    {
      OFFSET -15 30 0
      CHANNELS 3 Zrotation Xrotation Yrotation
      JOINT RightForeArm
      {
        OFFSET -25 0 0
        CHANNELS 3 Zrotation Xrotation Yrotation
        JOINT RightHand
        {
          OFFSET -25 0 0
          CHANNELS 3 Zrotation Xrotation Yrotation
          End Site
          {
            OFFSET -10 0 0
          }
        }
      }
    }
  }
  JOINT LeftUpLeg
  {
    OFFSET 10 -10 0
    CHANNELS 3 Zrotation Xrotation Yrotation
    JOINT LeftLeg
    {
      OFFSET 0 -35 0
      CHANNELS 3 Zrotation Xrotation Yrotation
      JOINT LeftToe
      {
        OFFSET 0 -40 0
        CHANNELS 3 Zrotation Xrotation Yrotation
        JOINT LeftToeEnd
        {
          OFFSET 0 0 0
          CHANNELS 3 Zrotation Xrotation Yrotation
          End Site
          {
            OFFSET 0 0 15
          }
        }
      }
    }
  }
  JOINT RightUpLeg
  {
    OFFSET -10 -10 0
    CHANNELS 3 Zrotation Xrotation Yrotation
    JOINT RightLeg
    {
      OFFSET 0 -35 0
      CHANNELS 3 Zrotation Xrotation Yrotation
      JOINT RightToe
      {
        OFFSET 0 -40 0
        CHANNELS 3 Zrotation Xrotation Yrotation
        JOINT RightToeEnd
        {
          OFFSET 0 0 0
          CHANNELS 3 Zrotation Xrotation Yrotation
          End Site
          {
            OFFSET 0 0 15
          }
        }
      }
    }
  }
}
MOTION
Frames:	11
Frame Time:	0.0333333
60.3643 66.7056 6.71948 0.151322 15.0253 6.50701 1.94681 33.2642 -7.53488 -5.26191 -26.2291 -2.67827 2.42746 -33.7267 0.201053 -44.8634 36.3793 -30.4288 26.7066 -11.2778 -48.8798 0.355562 -15.3241 0.909686 76.239 42.9025 2.85862 -27.3426 -11.8997 51.5837 -0.432312 -30.6451 -0.874379 -8.71759 -65.5985 -3.82586 175.339 87.0626 -175.571 9.46259 -40.4348 13.0316 6.4605e-016 -5.96354e-016 -6.36111e-015 12.0734 -66.6663 15.5497 178.057 82.2146 178.641 -10.7901 -38.9843 -17.6494 1.53748e-016 0 -2.48481e-017 
60.584 66.3183 6.17517 0.08519 16.4492 5.82762 1.99595 34.5817 -6.93198 -4.82632 -24.0268 -2.1802 1.62597 -37.9386 -0.215326 -49.1178 36.0776 -31.1901 27.1387 -11.7213 -49.8921 0.369552 -15.5319 0.970225 76.3289 41.2104 4.86184 -27.8326 -12.4234 52.6877 -0.45341 -31.6755 -0.921198 -7.94236 -68.5348 -2.86199 179.554 86.0828 -179.836 9.12532 -39.4941 12.8872 -5.96354e-016 3.97569e-016 3.18055e-015 13.9207 -70.108 17.4926 177.042 80.955 179.561 -10.0653 -37.2593 -17.4659 -4.5969e-016 -7.95139e-016 3.97569e-016 
60.7583 66.7345 5.76887 0.203269 17.6984 5.2025 1.74674 35.4919 -6.62412 -4.07967 -23.7234 -1.8885 0.666406 -37.9826 -0.59416 -53.5381 35.3678 -31.3693 26.2484 -10.9391 -48.2529 0.377687 -14.8633 1.02361 76.5883 39.2037 7.79285 -27.1545 -11.9033 51.4986 -0.493369 -33.8413 -0.941814 -7.95234 -69.5516 -2.86575 -178.46 87.2156 178.1 8.73192 -38.6933 12.5256 -4.96962e-017 0 -0 16.8503 -72.5676 21.7518 176.188 80.8697 -179.618 -8.45271 -34.3375 -16.2589 2.06239e-015 7.95139e-016 -0 
61.0333 68.0816 5.64789 -0.0870017 18.5325 5.01473 2.33086 35.7023 -6.66599 -3.62111 -22.2539 -1.73564 -0.30028 -39.0216 -1.34041 -56.9987 35.7432 -30.8189 24.388 -9.37883 -44.694 0.41514 -15.8537 1.08617 76.0896 38.2646 9.69737 -26.0865 -10.8978 49.205 -0.464945 -33.2284 -0.959513 -8.30209 -68.8051 -3.74328 -14.4319 89.6347 13.9947 8.02794 -37.4323 11.7376 1.98785e-016 1.98785e-016 -3.18055e-015 16.1119 -71.6222 22.1478 174.44 83.924 -177.743 -6.99931 -33.6002 -13.8534 -2.24875e-015 7.95139e-016 9.93923e-017 
61.1037 69.6704 5.58974 -0.697893 19.3379 4.21626 2.53745 35.4105 -6.06195 -4.04506 -22.9344 -1.49605 0.865429 -37.2467 -0.138316 -59.9959 36.2155 -28.6196 22.5343 -7.95154 -41.2388 0.408096 -16.5212 1.12154 76.7782 37.1689 9.83161 -25.0282 -10.0159 47.1302 -0.500885 -31.5892 -0.908325 -6.0547 -67.8165 -2.38509 -2.01097 86.1145 1.52865 7.32732 -36.1115 10.99 6.95746e-016 -1.98785e-016 -0 17.098 -69.7985 22.9755 161.88 88.337 -165.062 -6.992 -32.65 -14.0165 -1.96921e-015 -1.59028e-015 -0 
61.2304 71.8523 5.62693 -1.6122 19.9148 3.78676 3.30118 34.8263 -5.86478 -3.96525 -23.3719 -1.40392 1.03123 -36.1495 -0.284016 -63.8476 35.9302 -25.1924 21.1825 -7.01922 -38.8019 0.38839 -17.7914 1.1419 77.2247 36.4946 9.3046 -24.2139 -9.38104 45.5762 -0.496615 -30.3929 -0.882516 -4.7891 -65.8811 -2.31071 -0.872022 81.6688 0.414791 7.03562 -33.971 11.5397 -4.96962e-017 1.98785e-016 3.18055e-015 16.9248 -67.7308 21.8515 7.24857 86.4073 -10.3632 -6.6677 -29.8821 -14.6552 8.32411e-016 0 3.97569e-016 
61.2777 74.445 5.74298 -1.5417 20.0054 2.87287 2.64929 34.3393 -5.28092 -2.89458 -23.3009 -0.863888 0.133601 -35.902 -0.274195 -67.5105 35.61 -20.6566 20.5338 -6.64735 -37.7578 0.424785 -18.9486 1.17359 78.1763 35.8802 7.93407 -23.4978 -8.86108 44.2372 -0.502906 -28.8749 -0.833883 -3.53949 -62.3994 -1.31938 -0.17514 75.8064 -0.33247 6.25212 -31.2687 11.4944 -2.20695e-032 7.95139e-016 1.59028e-015 15.4112 -64.8844 20.9593 2.13694 80.9 -4.98367 -5.33592 -26.6366 -13.0565 1.05604e-016 0 -1.49089e-016 
61.2946 77.325 5.9958 -2.72594 19.9307 2.41606 3.62227 33.8186 -5.20467 -3.21753 -24.1007 -0.855472 0.97464 -34.7357 0.211663 -71.8605 33.9075 -15.7243 20.0824 -6.4125 -37.0784 0.438489 -16.3099 1.13797 78.8491 34.3663 6.76604 -22.6322 -8.25839 42.62 -0.481704 -26.7699 -0.786396 -0.261479 -58.7488 0.819598 -0.0319654 69.7861 -0.513928 5.2038 -27.9846 11.2907 9.93923e-017 -7.95139e-016 -3.18055e-015 14.0175 -60.681 18.9363 0.585274 73.3414 -3.08295 -4.11112 -23.3103 -11.2607 -4.34841e-016 0 9.93923e-017 
61.2504 80.0375 6.28245 -2.65866 20.0905 1.98991 3.05737 32.348 -4.81185 -2.98997 -25.2249 -0.727906 1.60687 -31.9976 0.623367 -74.7705 32.8642 -11.5222 19.5619 -6.14328 -36.262 0.44773 -16.2525 1.15652 80.2281 32.837 4.35302 -22.0208 -7.86548 41.519 -0.491671 -27.8965 -0.783801 0.964725 -55.0941 2.30602 0.0423127 63.2904 -0.710742 3.72397 -24.0802 10.1052 -2.98177e-016 1.59028e-015 4.77083e-015 10.8286 -56.545 16.0559 0.141311 65.743 -2.35303 -3.1517 -20.592 -9.54209 -1.56543e-015 7.95139e-016 -1.98785e-016 
61.1278 82.6532 6.54835 -3.68072 19.6706 2.35145 3.99892 31.0641 -4.62497 -2.48231 -24.7254 -0.282843 0.964135 -31.4151 0.622376 -77.817 29.9766 -8.06322 19.1089 -5.85672 -35.4069 0.405262 -16.7352 1.13103 81.1843 30.7139 2.26354 -21.21 -7.3362 40.0049 -0.474664 -27.1421 -0.774867 3.24933 -51.1219 4.13439 0.00386464 57.2053 -0.792864 2.34549 -20.1448 8.95225 -1.32417e-031 -2.38542e-015 -3.18055e-015 9.25845 -51.6835 13.0515 -0.109739 57.8356 -1.72782 -2.52918 -16.9277 -9.22877 7.0817e-016 3.18055e-015 4.96962e-017 
60.8801 84.98 6.78724 -4.28913 19.2867 2.07511 4.05089 29.751 -3.92495 -2.5406 -24.9334 -0.398718 1.26591 -29.7504 0.229386 -80.3325 26.2467 -4.85476 18.9297 -5.78116 -35.1234 0.393824 -17.3337 1.12851 81.8722 29.6939 0.486473 -20.3904 -6.83795 38.5431 -0.476944 -26.3669 -0.737542 5.11695 -47.18 5.6241 -0.123821 51.2196 -0.801605 1.18013 -16.3636 8.08598 -3.97569e-016 -1.59028e-015 -1.59028e-015 8.87771 -47.1097 11.7718 -0.219808 50.1901 -1.18893 -1.97136 -12.8288 -9.37102 1.8077e-015 -1.59028e-015 1.98785e-016 
